<svg width="343" height="167" viewBox="0 0 343 167" fill="none" xmlns="http://www.w3.org/2000/svg">
<rect x="0.5" y="0.5" width="342" height="166" rx="4.5" fill="#282A36" stroke="white"/>
<path d="M101.844 122.045C101.442 122.045 101.091 121.97 100.791 121.82C100.491 121.67 100.257 121.445 100.089 121.145C99.927 120.845 99.846 120.47 99.846 120.02V117.275H100.485V119.948C100.485 120.452 100.608 120.833 100.854 121.091C101.106 121.343 101.457 121.469 101.907 121.469C102.237 121.469 102.522 121.403 102.762 121.271C103.008 121.133 103.194 120.935 103.32 120.677C103.452 120.419 103.518 120.11 103.518 119.75V117.275H104.157V122H103.545V120.704L103.644 120.938C103.494 121.286 103.26 121.559 102.942 121.757C102.63 121.949 102.264 122.045 101.844 122.045ZM112.472 117.23C112.856 117.23 113.189 117.305 113.471 117.455C113.759 117.599 113.981 117.821 114.137 118.121C114.299 118.421 114.38 118.799 114.38 119.255V122H113.741V119.318C113.741 118.82 113.621 118.445 113.381 118.193C113.147 117.935 112.814 117.806 112.382 117.806C112.058 117.806 111.776 117.875 111.536 118.013C111.302 118.145 111.119 118.34 110.987 118.598C110.861 118.85 110.798 119.156 110.798 119.516V122H110.159V119.318C110.159 118.82 110.039 118.445 109.799 118.193C109.559 117.935 109.223 117.806 108.791 117.806C108.473 117.806 108.194 117.875 107.954 118.013C107.714 118.145 107.528 118.34 107.396 118.598C107.27 118.85 107.207 119.156 107.207 119.516V122H106.568V117.275H107.18V118.553L107.081 118.328C107.225 117.986 107.456 117.719 107.774 117.527C108.098 117.329 108.479 117.23 108.917 117.23C109.379 117.23 109.772 117.347 110.096 117.581C110.42 117.809 110.63 118.154 110.726 118.616L110.474 118.517C110.612 118.133 110.855 117.824 111.203 117.59C111.557 117.35 111.98 117.23 112.472 117.23ZM121.609 122.045C121.159 122.045 120.754 121.943 120.394 121.739C120.04 121.535 119.761 121.253 119.557 120.893C119.353 120.527 119.251 120.107 119.251 119.633C119.251 119.153 119.353 118.733 119.557 118.373C119.761 118.013 120.04 117.734 120.394 117.536C120.754 117.332 121.159 117.23 121.609 117.23C122.023 117.23 122.392 117.323 122.716 117.509C123.046 117.695 123.307 117.968 123.499 118.328C123.697 118.682 123.796 119.117 123.796 119.633C123.796 120.143 123.7 120.578 123.508 120.938C123.316 121.298 123.055 121.574 122.725 121.766C122.401 121.952 122.029 122.045 121.609 122.045ZM121.654 121.478C121.99 121.478 122.29 121.403 122.554 121.253C122.824 121.097 123.034 120.881 123.184 120.605C123.34 120.323 123.418 119.999 123.418 119.633C123.418 119.261 123.34 118.937 123.184 118.661C123.034 118.385 122.824 118.172 122.554 118.022C122.29 117.866 121.99 117.788 121.654 117.788C121.324 117.788 121.027 117.866 120.763 118.022C120.499 118.172 120.289 118.385 120.133 118.661C119.977 118.937 119.899 119.261 119.899 119.633C119.899 119.999 119.977 120.323 120.133 120.605C120.289 120.881 120.499 121.097 120.763 121.253C121.027 121.403 121.324 121.478 121.654 121.478ZM123.436 122V120.578L123.499 119.624L123.409 118.67V115.322H124.048V122H123.436ZM128.465 122.045C127.973 122.045 127.541 121.943 127.169 121.739C126.797 121.529 126.506 121.244 126.296 120.884C126.086 120.518 125.981 120.101 125.981 119.633C125.981 119.165 126.08 118.751 126.278 118.391C126.482 118.031 126.758 117.749 127.106 117.545C127.46 117.335 127.856 117.23 128.294 117.23C128.738 117.23 129.131 117.332 129.473 117.536C129.821 117.734 130.094 118.016 130.292 118.382C130.49 118.742 130.589 119.159 130.589 119.633C130.589 119.663 130.586 119.696 130.58 119.732C130.58 119.762 130.58 119.795 130.58 119.831H126.467V119.354H130.238L129.986 119.543C129.986 119.201 129.911 118.898 129.761 118.634C129.617 118.364 129.419 118.154 129.167 118.004C128.915 117.854 128.624 117.779 128.294 117.779C127.97 117.779 127.679 117.854 127.421 118.004C127.163 118.154 126.962 118.364 126.818 118.634C126.674 118.904 126.602 119.213 126.602 119.561V119.66C126.602 120.02 126.68 120.338 126.836 120.614C126.998 120.884 127.22 121.097 127.502 121.253C127.79 121.403 128.117 121.478 128.483 121.478C128.771 121.478 129.038 121.427 129.284 121.325C129.536 121.223 129.752 121.067 129.932 120.857L130.292 121.271C130.082 121.523 129.818 121.715 129.5 121.847C129.188 121.979 128.843 122.045 128.465 122.045ZM133.789 122.045C133.399 122.045 133.03 121.991 132.682 121.883C132.334 121.769 132.061 121.628 131.863 121.46L132.151 120.956C132.343 121.1 132.589 121.226 132.889 121.334C133.189 121.436 133.504 121.487 133.834 121.487C134.284 121.487 134.608 121.418 134.806 121.28C135.004 121.136 135.103 120.947 135.103 120.713C135.103 120.539 135.046 120.404 134.932 120.308C134.824 120.206 134.68 120.131 134.5 120.083C134.32 120.029 134.119 119.984 133.897 119.948C133.675 119.912 133.453 119.87 133.231 119.822C133.015 119.774 132.817 119.705 132.637 119.615C132.457 119.519 132.31 119.39 132.196 119.228C132.088 119.066 132.034 118.85 132.034 118.58C132.034 118.322 132.106 118.091 132.25 117.887C132.394 117.683 132.604 117.524 132.88 117.41C133.162 117.29 133.504 117.23 133.906 117.23C134.212 117.23 134.518 117.272 134.824 117.356C135.13 117.434 135.382 117.539 135.58 117.671L135.301 118.184C135.091 118.04 134.866 117.938 134.626 117.878C134.386 117.812 134.146 117.779 133.906 117.779C133.48 117.779 133.165 117.854 132.961 118.004C132.763 118.148 132.664 118.334 132.664 118.562C132.664 118.742 132.718 118.883 132.826 118.985C132.94 119.087 133.087 119.168 133.267 119.228C133.453 119.282 133.654 119.327 133.87 119.363C134.092 119.399 134.311 119.444 134.527 119.498C134.749 119.546 134.95 119.615 135.13 119.705C135.316 119.789 135.463 119.912 135.571 120.074C135.685 120.23 135.742 120.437 135.742 120.695C135.742 120.971 135.664 121.211 135.508 121.415C135.358 121.613 135.136 121.769 134.842 121.883C134.554 121.991 134.203 122.045 133.789 122.045ZM139.551 122.045C139.059 122.045 138.627 121.943 138.255 121.739C137.883 121.529 137.592 121.244 137.382 120.884C137.172 120.518 137.067 120.101 137.067 119.633C137.067 119.165 137.166 118.751 137.364 118.391C137.568 118.031 137.844 117.749 138.192 117.545C138.546 117.335 138.942 117.23 139.38 117.23C139.824 117.23 140.217 117.332 140.559 117.536C140.907 117.734 141.18 118.016 141.378 118.382C141.576 118.742 141.675 119.159 141.675 119.633C141.675 119.663 141.672 119.696 141.666 119.732C141.666 119.762 141.666 119.795 141.666 119.831H137.553V119.354H141.324L141.072 119.543C141.072 119.201 140.997 118.898 140.847 118.634C140.703 118.364 140.505 118.154 140.253 118.004C140.001 117.854 139.71 117.779 139.38 117.779C139.056 117.779 138.765 117.854 138.507 118.004C138.249 118.154 138.048 118.364 137.904 118.634C137.76 118.904 137.688 119.213 137.688 119.561V119.66C137.688 120.02 137.766 120.338 137.922 120.614C138.084 120.884 138.306 121.097 138.588 121.253C138.876 121.403 139.203 121.478 139.569 121.478C139.857 121.478 140.124 121.427 140.37 121.325C140.622 121.223 140.838 121.067 141.018 120.857L141.378 121.271C141.168 121.523 140.904 121.715 140.586 121.847C140.274 121.979 139.929 122.045 139.551 122.045ZM146.018 117.23C146.402 117.23 146.738 117.305 147.026 117.455C147.32 117.599 147.548 117.821 147.71 118.121C147.878 118.421 147.962 118.799 147.962 119.255V122H147.323V119.318C147.323 118.82 147.197 118.445 146.945 118.193C146.699 117.935 146.351 117.806 145.901 117.806C145.565 117.806 145.271 117.875 145.019 118.013C144.773 118.145 144.581 118.34 144.443 118.598C144.311 118.85 144.245 119.156 144.245 119.516V122H143.606V117.275H144.218V118.571L144.119 118.328C144.269 117.986 144.509 117.719 144.839 117.527C145.169 117.329 145.562 117.23 146.018 117.23ZM151.445 122L149.348 117.275H150.014L151.94 121.658H151.625L153.578 117.275H154.208L152.102 122H151.445ZM157.532 122.045C157.076 122.045 156.665 121.943 156.299 121.739C155.939 121.529 155.654 121.244 155.444 120.884C155.234 120.518 155.129 120.101 155.129 119.633C155.129 119.159 155.234 118.742 155.444 118.382C155.654 118.022 155.939 117.74 156.299 117.536C156.659 117.332 157.07 117.23 157.532 117.23C158 117.23 158.414 117.332 158.774 117.536C159.14 117.74 159.425 118.022 159.629 118.382C159.839 118.742 159.944 119.159 159.944 119.633C159.944 120.101 159.839 120.518 159.629 120.884C159.425 121.244 159.14 121.529 158.774 121.739C158.408 121.943 157.994 122.045 157.532 122.045ZM157.532 121.478C157.874 121.478 158.177 121.403 158.441 121.253C158.705 121.097 158.912 120.881 159.062 120.605C159.218 120.323 159.296 119.999 159.296 119.633C159.296 119.261 159.218 118.937 159.062 118.661C158.912 118.385 158.705 118.172 158.441 118.022C158.177 117.866 157.877 117.788 157.541 117.788C157.205 117.788 156.905 117.866 156.641 118.022C156.377 118.172 156.167 118.385 156.011 118.661C155.855 118.937 155.777 119.261 155.777 119.633C155.777 119.999 155.855 120.323 156.011 120.605C156.167 120.881 156.377 121.097 156.641 121.253C156.905 121.403 157.202 121.478 157.532 121.478ZM161.878 122V115.322H162.517V122H161.878ZM166.14 122L164.043 117.275H164.709L166.635 121.658H166.32L168.273 117.275H168.903L166.797 122H166.14ZM172.309 122.045C171.817 122.045 171.385 121.943 171.013 121.739C170.641 121.529 170.35 121.244 170.14 120.884C169.93 120.518 169.825 120.101 169.825 119.633C169.825 119.165 169.924 118.751 170.122 118.391C170.326 118.031 170.602 117.749 170.95 117.545C171.304 117.335 171.7 117.23 172.138 117.23C172.582 117.23 172.975 117.332 173.317 117.536C173.665 117.734 173.938 118.016 174.136 118.382C174.334 118.742 174.433 119.159 174.433 119.633C174.433 119.663 174.43 119.696 174.424 119.732C174.424 119.762 174.424 119.795 174.424 119.831H170.311V119.354H174.082L173.83 119.543C173.83 119.201 173.755 118.898 173.605 118.634C173.461 118.364 173.263 118.154 173.011 118.004C172.759 117.854 172.468 117.779 172.138 117.779C171.814 117.779 171.523 117.854 171.265 118.004C171.007 118.154 170.806 118.364 170.662 118.634C170.518 118.904 170.446 119.213 170.446 119.561V119.66C170.446 120.02 170.524 120.338 170.68 120.614C170.842 120.884 171.064 121.097 171.346 121.253C171.634 121.403 171.961 121.478 172.327 121.478C172.615 121.478 172.882 121.427 173.128 121.325C173.38 121.223 173.596 121.067 173.776 120.857L174.136 121.271C173.926 121.523 173.662 121.715 173.344 121.847C173.032 121.979 172.687 122.045 172.309 122.045ZM178.244 122.045C177.794 122.045 177.389 121.943 177.029 121.739C176.675 121.535 176.396 121.253 176.192 120.893C175.988 120.527 175.886 120.107 175.886 119.633C175.886 119.153 175.988 118.733 176.192 118.373C176.396 118.013 176.675 117.734 177.029 117.536C177.389 117.332 177.794 117.23 178.244 117.23C178.658 117.23 179.027 117.323 179.351 117.509C179.681 117.695 179.942 117.968 180.134 118.328C180.332 118.682 180.431 119.117 180.431 119.633C180.431 120.143 180.335 120.578 180.143 120.938C179.951 121.298 179.69 121.574 179.36 121.766C179.036 121.952 178.664 122.045 178.244 122.045ZM178.289 121.478C178.625 121.478 178.925 121.403 179.189 121.253C179.459 121.097 179.669 120.881 179.819 120.605C179.975 120.323 180.053 119.999 180.053 119.633C180.053 119.261 179.975 118.937 179.819 118.661C179.669 118.385 179.459 118.172 179.189 118.022C178.925 117.866 178.625 117.788 178.289 117.788C177.959 117.788 177.662 117.866 177.398 118.022C177.134 118.172 176.924 118.385 176.768 118.661C176.612 118.937 176.534 119.261 176.534 119.633C176.534 119.999 176.612 120.323 176.768 120.605C176.924 120.881 177.134 121.097 177.398 121.253C177.662 121.403 177.959 121.478 178.289 121.478ZM180.071 122V120.578L180.134 119.624L180.044 118.67V115.322H180.683V122H180.071ZM185.019 122.045C184.563 122.045 184.152 121.943 183.786 121.739C183.426 121.529 183.141 121.244 182.931 120.884C182.721 120.518 182.616 120.101 182.616 119.633C182.616 119.159 182.721 118.742 182.931 118.382C183.141 118.022 183.426 117.74 183.786 117.536C184.146 117.332 184.557 117.23 185.019 117.23C185.487 117.23 185.901 117.332 186.261 117.536C186.627 117.74 186.912 118.022 187.116 118.382C187.326 118.742 187.431 119.159 187.431 119.633C187.431 120.101 187.326 120.518 187.116 120.884C186.912 121.244 186.627 121.529 186.261 121.739C185.895 121.943 185.481 122.045 185.019 122.045ZM185.019 121.478C185.361 121.478 185.664 121.403 185.928 121.253C186.192 121.097 186.399 120.881 186.549 120.605C186.705 120.323 186.783 119.999 186.783 119.633C186.783 119.261 186.705 118.937 186.549 118.661C186.399 118.385 186.192 118.172 185.928 118.022C185.664 117.866 185.364 117.788 185.028 117.788C184.692 117.788 184.392 117.866 184.128 118.022C183.864 118.172 183.654 118.385 183.498 118.661C183.342 118.937 183.264 119.261 183.264 119.633C183.264 119.999 183.342 120.323 183.498 120.605C183.654 120.881 183.864 121.097 184.128 121.253C184.392 121.403 184.689 121.478 185.019 121.478ZM189.365 122V117.275H189.977V118.562L189.914 118.337C190.046 117.977 190.268 117.704 190.58 117.518C190.892 117.326 191.279 117.23 191.741 117.23V117.851C191.717 117.851 191.693 117.851 191.669 117.851C191.645 117.845 191.621 117.842 191.597 117.842C191.099 117.842 190.709 117.995 190.427 118.301C190.145 118.601 190.004 119.03 190.004 119.588V122H189.365ZM196.701 122V116.681C196.701 116.261 196.824 115.922 197.07 115.664C197.316 115.406 197.67 115.277 198.132 115.277C198.312 115.277 198.486 115.301 198.654 115.349C198.822 115.397 198.963 115.472 199.077 115.574L198.861 116.051C198.771 115.973 198.666 115.916 198.546 115.88C198.426 115.838 198.297 115.817 198.159 115.817C197.889 115.817 197.682 115.892 197.538 116.042C197.394 116.192 197.322 116.414 197.322 116.708V117.428L197.34 117.725V122H196.701ZM195.855 117.806V117.275H198.78V117.806H195.855ZM202.226 122.045C201.824 122.045 201.473 121.97 201.173 121.82C200.873 121.67 200.639 121.445 200.471 121.145C200.309 120.845 200.228 120.47 200.228 120.02V117.275H200.867V119.948C200.867 120.452 200.99 120.833 201.236 121.091C201.488 121.343 201.839 121.469 202.289 121.469C202.619 121.469 202.904 121.403 203.144 121.271C203.39 121.133 203.576 120.935 203.702 120.677C203.834 120.419 203.9 120.11 203.9 119.75V117.275H204.539V122H203.927V120.704L204.026 120.938C203.876 121.286 203.642 121.559 203.324 121.757C203.012 121.949 202.646 122.045 202.226 122.045ZM206.95 122V115.322H207.589V122H206.95ZM209.997 122V115.322H210.636V122H209.997ZM212.693 119.84V119.282H215.051V119.84H212.693ZM218.379 122.045C217.989 122.045 217.62 121.991 217.272 121.883C216.924 121.769 216.651 121.628 216.453 121.46L216.741 120.956C216.933 121.1 217.179 121.226 217.479 121.334C217.779 121.436 218.094 121.487 218.424 121.487C218.874 121.487 219.198 121.418 219.396 121.28C219.594 121.136 219.693 120.947 219.693 120.713C219.693 120.539 219.636 120.404 219.522 120.308C219.414 120.206 219.27 120.131 219.09 120.083C218.91 120.029 218.709 119.984 218.487 119.948C218.265 119.912 218.043 119.87 217.821 119.822C217.605 119.774 217.407 119.705 217.227 119.615C217.047 119.519 216.9 119.39 216.786 119.228C216.678 119.066 216.624 118.85 216.624 118.58C216.624 118.322 216.696 118.091 216.84 117.887C216.984 117.683 217.194 117.524 217.47 117.41C217.752 117.29 218.094 117.23 218.496 117.23C218.802 117.23 219.108 117.272 219.414 117.356C219.72 117.434 219.972 117.539 220.17 117.671L219.891 118.184C219.681 118.04 219.456 117.938 219.216 117.878C218.976 117.812 218.736 117.779 218.496 117.779C218.07 117.779 217.755 117.854 217.551 118.004C217.353 118.148 217.254 118.334 217.254 118.562C217.254 118.742 217.308 118.883 217.416 118.985C217.53 119.087 217.677 119.168 217.857 119.228C218.043 119.282 218.244 119.327 218.46 119.363C218.682 119.399 218.901 119.444 219.117 119.498C219.339 119.546 219.54 119.615 219.72 119.705C219.906 119.789 220.053 119.912 220.161 120.074C220.275 120.23 220.332 120.437 220.332 120.695C220.332 120.971 220.254 121.211 220.098 121.415C219.948 121.613 219.726 121.769 219.432 121.883C219.144 121.991 218.793 122.045 218.379 122.045ZM223.629 122.045C223.185 122.045 222.843 121.925 222.603 121.685C222.363 121.445 222.243 121.106 222.243 120.668V116.231H222.882V120.632C222.882 120.908 222.951 121.121 223.089 121.271C223.233 121.421 223.437 121.496 223.701 121.496C223.983 121.496 224.217 121.415 224.403 121.253L224.628 121.712C224.502 121.826 224.349 121.91 224.169 121.964C223.995 122.018 223.815 122.045 223.629 122.045ZM221.397 117.806V117.275H224.322V117.806H221.397ZM229.382 122V120.956L229.355 120.785V119.039C229.355 118.637 229.241 118.328 229.013 118.112C228.791 117.896 228.458 117.788 228.014 117.788C227.708 117.788 227.417 117.839 227.141 117.941C226.865 118.043 226.631 118.178 226.439 118.346L226.151 117.869C226.391 117.665 226.679 117.509 227.015 117.401C227.351 117.287 227.705 117.23 228.077 117.23C228.689 117.23 229.16 117.383 229.49 117.689C229.826 117.989 229.994 118.448 229.994 119.066V122H229.382ZM227.753 122.045C227.399 122.045 227.09 121.988 226.826 121.874C226.568 121.754 226.37 121.592 226.232 121.388C226.094 121.178 226.025 120.938 226.025 120.668C226.025 120.422 226.082 120.2 226.196 120.002C226.316 119.798 226.508 119.636 226.772 119.516C227.042 119.39 227.402 119.327 227.852 119.327H229.481V119.804H227.87C227.414 119.804 227.096 119.885 226.916 120.047C226.742 120.209 226.655 120.41 226.655 120.65C226.655 120.92 226.76 121.136 226.97 121.298C227.18 121.46 227.474 121.541 227.852 121.541C228.212 121.541 228.521 121.46 228.779 121.298C229.043 121.13 229.235 120.89 229.355 120.578L229.499 121.019C229.379 121.331 229.169 121.58 228.869 121.766C228.575 121.952 228.203 122.045 227.753 122.045ZM234.322 122.045C233.854 122.045 233.434 121.943 233.062 121.739C232.696 121.529 232.408 121.244 232.198 120.884C231.988 120.518 231.883 120.101 231.883 119.633C231.883 119.159 231.988 118.742 232.198 118.382C232.408 118.022 232.696 117.74 233.062 117.536C233.434 117.332 233.854 117.23 234.322 117.23C234.724 117.23 235.087 117.308 235.411 117.464C235.735 117.62 235.99 117.854 236.176 118.166L235.699 118.49C235.537 118.25 235.336 118.073 235.096 117.959C234.856 117.845 234.595 117.788 234.313 117.788C233.977 117.788 233.674 117.866 233.404 118.022C233.134 118.172 232.921 118.385 232.765 118.661C232.609 118.937 232.531 119.261 232.531 119.633C232.531 120.005 232.609 120.329 232.765 120.605C232.921 120.881 233.134 121.097 233.404 121.253C233.674 121.403 233.977 121.478 234.313 121.478C234.595 121.478 234.856 121.421 235.096 121.307C235.336 121.193 235.537 121.019 235.699 120.785L236.176 121.109C235.99 121.415 235.735 121.649 235.411 121.811C235.087 121.967 234.724 122.045 234.322 122.045ZM238.495 120.776L238.513 119.957L241.456 117.275H242.239L240.16 119.264L239.8 119.57L238.495 120.776ZM237.991 122V115.322H238.63V122H237.991ZM241.654 122L239.683 119.543L240.097 119.048L242.437 122H241.654Z" fill="white"/>
<g filter="url(#filter0_i_0_1)">
<path d="M98.9269 111L125.072 52.9H135.696L161.924 111H150.636L128.143 58.627H132.459L110.049 111H98.9269ZM110.962 97.554L113.867 89.088H145.241L148.146 97.554H110.962ZM155.037 111V49.414H165.412V111H155.037ZM186.582 111.581C181.657 111.581 177.341 110.613 173.634 108.676C169.982 106.684 167.132 103.973 165.085 100.542C163.093 97.1113 162.097 93.2103 162.097 88.839C162.097 84.4123 163.065 80.5113 165.002 77.136C166.994 73.7053 169.705 71.0217 173.136 69.085C176.622 67.1483 180.578 66.18 185.005 66.18C189.321 66.18 193.167 67.1207 196.542 69.002C199.917 70.8833 202.573 73.5393 204.51 76.97C206.447 80.4007 207.415 84.44 207.415 89.088C207.415 89.5307 207.387 90.0287 207.332 90.582C207.332 91.1353 207.304 91.661 207.249 92.159H170.314V85.27H201.771L197.704 87.428C197.759 84.8827 197.234 82.6417 196.127 80.705C195.02 78.7683 193.499 77.2467 191.562 76.14C189.681 75.0333 187.495 74.48 185.005 74.48C182.46 74.48 180.219 75.0333 178.282 76.14C176.401 77.2467 174.907 78.796 173.8 80.788C172.749 82.7247 172.223 85.021 172.223 87.677V89.337C172.223 91.993 172.832 94.3447 174.049 96.392C175.266 98.4393 176.982 100.016 179.195 101.123C181.408 102.23 183.954 102.783 186.831 102.783C189.321 102.783 191.562 102.396 193.554 101.621C195.546 100.846 197.317 99.629 198.866 97.969L204.427 104.36C202.435 106.684 199.917 108.482 196.874 109.755C193.886 110.972 190.455 111.581 186.582 111.581ZM196.826 111L216.331 85.602L216.165 91.163L197.573 66.678H209.11L222.141 84.108H217.742L230.856 66.678H242.061L223.303 91.163L223.386 85.602L242.808 111H231.105L217.41 92.491L221.726 93.072L208.28 111H196.826Z" fill="white"/>
</g>
<defs>
<filter id="filter0_i_0_1" x="98.9269" y="49.4139" width="145.881" height="66.1671" filterUnits="userSpaceOnUse" color-interpolation-filters="sRGB">
<feFlood flood-opacity="0" result="BackgroundImageFix"/>
<feBlend mode="normal" in="SourceGraphic" in2="BackgroundImageFix" result="shape"/>
<feColorMatrix in="SourceAlpha" type="matrix" values="0 0 0 0 0 0 0 0 0 0 0 0 0 0 0 0 0 0 127 0" result="hardAlpha"/>
<feOffset dx="2" dy="4"/>
<feGaussianBlur stdDeviation="3.5"/>
<feComposite in2="hardAlpha" operator="arithmetic" k2="-1" k3="1"/>
<feColorMatrix type="matrix" values="0 0 0 0 0 0 0 0 0 0 0 0 0 0 0 0 0 0 0.4 0"/>
<feBlend mode="normal" in2="shape" result="effect1_innerShadow_0_1"/>
</filter>
</defs>
</svg>
